<?xml version="1.0" encoding="UTF-8"?>
<!DOCTYPE svg PUBLIC "-//W3C//DTD SVG 1.1//EN" "http://www.w3.org/Graphics/SVG/1.1/DTD/svg11.dtd">
<!-- Creator: CorelDRAW X7 -->
<svg xmlns="http://www.w3.org/2000/svg" xml:space="preserve" width="7.9673mm" height="7.5704mm" version="1.1" style="shape-rendering:geometricPrecision; text-rendering:geometricPrecision; image-rendering:optimizeQuality; fill-rule:evenodd; clip-rule:evenodd"
viewBox="0 0 134 127"
 xmlns:xlink="http://www.w3.org/1999/xlink">
 <defs>
  <style type="text/css">
   <![CDATA[
    .fil0 {fill:white}
   ]]>
  </style>
 </defs>
 <g id="Layer_x0020_1">
  <metadata id="CorelCorpID_0Corel-Layer"/>
  <path class="fil0" d="M53 53c-7,0 -13,-2 -18,-7 -6,-6 -8,-12 -8,-19 0,-8 2,-14 8,-19 5,-5 11,-8 18,-8 8,0 14,3 19,8 6,5 8,11 8,19 0,7 -2,13 -8,19 -5,5 -11,7 -19,7zm70 73l-17 -17c-2,1 -5,2 -7,3 -3,1 -6,2 -9,2 -8,0 -15,-3 -21,-9 -6,-6 -9,-13 -9,-22 0,-8 3,-15 9,-21 6,-6 13,-9 21,-9 8,0 16,3 21,9 6,6 9,13 9,21 0,3 0,6 -1,9 -1,3 -2,5 -3,7l16 17c1,1 2,3 2,5 0,2 -1,3 -2,5 -1,1 -3,1 -4,1 -2,0 -4,0 -5,-1l0 0zm-33 -26c5,0 9,-1 12,-5 3,-3 5,-7 5,-12 0,-4 -2,-8 -5,-11 -3,-4 -7,-5 -12,-5 -5,0 -8,1 -12,5 -3,3 -5,7 -5,11 0,5 2,9 5,12 4,4 7,5 12,5zm-77 7c-3,0 -6,-1 -9,-4 -3,-3 -4,-6 -4,-10l0 -5c0,-3 1,-7 3,-10 2,-3 4,-6 8,-8 5,-2 12,-5 19,-7 7,-2 15,-3 24,-3 -3,4 -4,7 -6,11 -1,4 -1,8 -1,12 0,5 0,9 1,13 2,4 3,7 6,11l-41 0z"/>
 </g>
</svg>
