<?xml version="1.0" encoding="UTF-8"?>
<!DOCTYPE svg PUBLIC "-//W3C//DTD SVG 1.1//EN" "http://www.w3.org/Graphics/SVG/1.1/DTD/svg11.dtd">
<!-- Creator: CorelDRAW X7 -->
<svg xmlns="http://www.w3.org/2000/svg" xml:space="preserve" width="39.6491mm" height="7.5704mm" version="1.1" style="shape-rendering:geometricPrecision; text-rendering:geometricPrecision; image-rendering:optimizeQuality; fill-rule:evenodd; clip-rule:evenodd"
viewBox="0 0 3319 634"
 xmlns:xlink="http://www.w3.org/1999/xlink">
 <defs>
  <style type="text/css">
   <![CDATA[
    .fil0 {fill:white}
   ]]>
  </style>
 </defs>
 <g id="Layer_x0020_1">
  <metadata id="CorelCorpID_0Corel-Layer"/>
  <path class="fil0" d="M866 536c-13,0 -23,-3 -31,-11 -7,-7 -10,-18 -10,-31l0 -269 -94 0c-11,0 -20,-3 -26,-9 -6,-6 -9,-15 -9,-25 0,-11 3,-19 9,-25 6,-6 15,-9 26,-9l270 0c11,0 20,3 26,9 6,6 9,14 9,25 0,10 -3,19 -9,25 -6,6 -15,9 -26,9l-94 0 0 269c0,13 -3,24 -10,31 -7,8 -17,11 -31,11zm245 1c-19,0 -37,-3 -52,-11 -15,-7 -27,-17 -36,-30 -8,-13 -12,-27 -12,-43 0,-19 5,-34 15,-45 10,-12 26,-20 48,-24 22,-5 52,-8 89,-8l28 0 0 42 -28 0c-18,0 -32,1 -44,3 -11,2 -19,5 -24,10 -4,4 -7,11 -7,19 0,10 4,18 10,24 8,7 18,10 31,10 10,0 19,-3 27,-7 8,-5 14,-12 19,-20 5,-8 7,-18 7,-29l0 -61c0,-15 -4,-26 -11,-33 -7,-6 -19,-10 -36,-10 -9,0 -20,2 -31,4 -11,2 -23,6 -37,11 -8,4 -15,5 -21,3 -6,-2 -10,-6 -13,-11 -4,-5 -5,-11 -5,-17 0,-6 1,-12 5,-18 4,-6 9,-10 18,-13 16,-7 32,-12 46,-14 15,-2 29,-4 41,-4 28,0 50,4 67,12 18,8 31,21 40,37 9,16 13,38 13,63l0 118c0,14 -3,24 -9,31 -7,7 -16,10 -28,10 -12,0 -21,-3 -28,-10 -6,-7 -10,-17 -10,-31l0 -19 4 3c-2,12 -7,22 -14,31 -6,9 -15,16 -26,21 -10,4 -23,6 -36,6zm301 0c-31,0 -55,-8 -70,-26 -16,-17 -24,-44 -24,-78l0 -240c0,-13 4,-24 10,-30 8,-7 18,-11 31,-11 12,0 22,4 29,11 7,6 11,17 11,30l0 237c0,14 3,25 9,32 6,7 14,10 25,10 2,0 5,0 8,0 2,-1 5,-1 8,-1 5,-1 9,1 11,5 3,4 4,12 4,24 0,11 -2,19 -6,25 -5,5 -11,9 -20,10 -4,1 -8,1 -12,1 -5,1 -9,1 -14,1zm216 0c-31,0 -57,-5 -79,-16 -22,-11 -39,-27 -51,-47 -12,-21 -18,-45 -18,-73 0,-27 6,-50 17,-70 11,-21 27,-37 47,-48 21,-12 44,-18 70,-18 19,0 36,3 51,10 15,6 28,15 39,26 11,12 20,26 25,42 6,17 9,35 9,55 0,7 -2,12 -7,16 -4,3 -10,4 -18,4l-167 0 0 -41 134 0 -9 7c0,-14 -2,-26 -6,-36 -4,-10 -10,-17 -19,-22 -7,-5 -17,-8 -29,-8 -13,0 -24,3 -33,9 -10,6 -17,15 -22,27 -5,11 -7,25 -7,40l0 5c0,27 6,46 19,59 12,13 31,19 56,19 8,0 18,-1 29,-3 11,-2 21,-5 31,-10 8,-4 15,-5 22,-4 6,1 11,4 15,9 3,4 5,10 6,16 0,6 -1,12 -4,18 -3,6 -9,10 -16,14 -12,7 -26,12 -41,15 -15,4 -30,5 -44,5zm197 -1c-13,0 -23,-3 -30,-10 -7,-7 -10,-17 -10,-31l0 -188c0,-13 3,-23 10,-30 7,-7 16,-11 29,-11 13,0 22,4 29,11 7,7 10,17 10,30l0 30 -6 -18c9,-17 21,-30 36,-39 17,-10 35,-15 56,-15 21,0 38,4 51,12 14,8 24,20 31,37 6,16 10,36 10,61l0 120c0,14 -4,24 -11,31 -7,7 -17,10 -30,10 -12,0 -22,-3 -29,-10 -7,-7 -11,-17 -11,-31l0 -116c0,-19 -3,-32 -10,-39 -6,-8 -16,-13 -29,-13 -17,0 -31,6 -41,16 -10,11 -15,25 -15,43l0 109c0,28 -13,41 -40,41zm404 1c-25,0 -45,-4 -62,-12 -16,-8 -28,-20 -37,-35 -7,-16 -11,-36 -11,-59l0 -100 -23 0c-10,0 -17,-3 -23,-8 -5,-6 -8,-13 -8,-22 0,-10 3,-17 8,-22 6,-6 13,-8 23,-8l23 0 0 -41c0,-13 3,-23 10,-30 7,-7 17,-11 30,-11 13,0 23,4 30,11 7,7 10,17 10,30l0 41 51 0c9,0 17,2 22,8 6,5 8,12 8,22 0,9 -2,16 -8,22 -5,5 -13,8 -22,8l-51 0 0 96c0,15 3,26 10,34 7,7 18,11 34,11 5,0 10,0 14,-2 5,-1 9,-1 13,-2 5,0 9,2 12,5 4,3 5,11 5,22 0,8 -1,16 -4,22 -3,7 -8,11 -15,14 -4,2 -11,3 -19,4 -8,2 -15,2 -20,2zm135 -1c-13,0 -24,-3 -31,-11 -7,-7 -10,-18 -10,-31l0 -299c0,-14 3,-24 10,-32 7,-7 18,-11 31,-11 13,0 23,4 30,11 7,8 11,18 11,32l0 112 174 0 0 -112c0,-14 4,-24 11,-32 7,-7 17,-11 30,-11 14,0 24,4 31,11 7,8 11,18 11,32l0 299c0,13 -4,24 -11,31 -7,8 -17,11 -31,11 -13,0 -23,-3 -30,-11 -7,-7 -11,-18 -11,-31l0 -118 -174 0 0 118c0,13 -4,24 -11,31 -6,8 -17,11 -30,11zm463 1c-22,0 -41,-4 -55,-12 -15,-8 -25,-20 -33,-36 -6,-17 -10,-38 -10,-62l0 -120c0,-14 4,-24 10,-31 8,-6 17,-10 30,-10 13,0 23,4 30,10 7,7 11,17 11,31l0 122c0,16 3,27 9,35 7,8 17,11 30,11 16,0 28,-5 38,-16 10,-11 15,-25 15,-43l0 -109c0,-14 3,-24 10,-31 7,-6 17,-10 29,-10 14,0 23,4 30,10 7,7 11,17 11,31l0 188c0,28 -13,41 -39,41 -13,0 -22,-3 -29,-10 -7,-7 -10,-17 -10,-31l0 -35 8 21c-8,18 -19,32 -34,42 -14,9 -32,14 -51,14zm378 0c-21,0 -39,-5 -56,-15 -16,-11 -26,-25 -32,-42l6 -18 0 33c0,14 -3,24 -10,31 -7,7 -16,10 -29,10 -13,0 -23,-3 -30,-10 -7,-7 -10,-17 -10,-31l0 -302c0,-13 3,-24 10,-30 7,-7 17,-11 30,-11 13,0 23,4 30,11 7,6 10,17 10,30l0 126 -6 0c6,-16 16,-29 32,-39 16,-10 34,-15 55,-15 23,0 43,6 60,17 17,11 30,26 40,47 10,20 14,44 14,72 0,28 -4,52 -14,73 -10,20 -23,36 -40,47 -17,11 -37,16 -60,16zm-24 -60c11,0 21,-2 30,-8 9,-6 15,-14 20,-25 5,-11 8,-26 8,-43 0,-26 -6,-45 -16,-57 -11,-12 -25,-19 -42,-19 -11,0 -21,3 -30,8 -9,6 -15,14 -20,25 -5,11 -8,25 -8,43 0,26 5,45 16,58 11,12 25,18 42,18z"/>
  <path class="fil0" d="M266 266c-37,0 -68,-13 -94,-39 -26,-26 -39,-58 -39,-94 0,-37 13,-68 39,-94 26,-26 57,-39 94,-39 36,0 68,13 94,39 26,26 39,57 39,94 0,36 -13,68 -39,94 -26,26 -58,39 -94,39zm345 359l-83 -83c-11,6 -24,12 -37,16 -13,5 -28,7 -42,7 -42,0 -77,-15 -106,-44 -29,-29 -44,-64 -44,-106 0,-41 15,-77 44,-106 29,-29 64,-43 106,-43 41,0 76,14 105,43 30,29 44,65 44,106 0,15 -2,29 -7,43 -4,13 -10,25 -16,37l83 83c6,6 9,14 9,23 0,10 -3,18 -9,24 -6,6 -14,9 -23,9 -10,0 -18,-3 -24,-9l0 0zm-162 -127c23,0 42,-8 59,-24 16,-16 24,-35 24,-59 0,-23 -8,-43 -24,-59 -17,-16 -36,-24 -59,-24 -24,0 -43,8 -59,24 -16,16 -25,36 -25,59 0,24 9,43 25,59 16,16 35,24 59,24zm-383 34c-18,0 -33,-7 -46,-20 -14,-13 -20,-29 -20,-47l0 -26c0,-18 5,-36 14,-52 10,-16 23,-28 39,-36 28,-15 60,-27 96,-37 35,-10 74,-15 118,-15 -11,17 -20,36 -26,55 -6,20 -8,40 -8,61 0,21 2,41 8,61 6,19 15,38 26,56l-201 0z"/>
 </g>
</svg>
