<svg width="57" height="70" viewBox="0 0 57 70" fill="none" xmlns="http://www.w3.org/2000/svg">
<path d="M10.9502 35C10.38 35 9.83312 35.2265 9.42992 35.6297C9.02671 36.0329 8.8002 36.5798 8.8002 37.15C8.8002 37.7202 9.02671 38.2671 9.42992 38.6703C9.83312 39.0735 10.38 39.3 10.9502 39.3C11.5204 39.3 12.0673 39.0735 12.4705 38.6703C12.8737 38.2671 13.1002 37.7202 13.1002 37.15C13.1002 36.5798 12.8737 36.0329 12.4705 35.6297C12.0673 35.2265 11.5204 35 10.9502 35ZM8.8002 45.75C8.8002 45.1798 9.02671 44.6329 9.42992 44.2297C9.83312 43.8265 10.38 43.6 10.9502 43.6C11.5204 43.6 12.0673 43.8265 12.4705 44.2297C12.8737 44.6329 13.1002 45.1798 13.1002 45.75C13.1002 46.3202 12.8737 46.8671 12.4705 47.2703C12.0673 47.6735 11.5204 47.9 10.9502 47.9C10.38 47.9 9.83312 47.6735 9.42992 47.2703C9.02671 46.8671 8.8002 46.3202 8.8002 45.75ZM17.4002 37.15C17.4002 36.5798 17.6267 36.0329 18.0299 35.6297C18.4331 35.2265 18.98 35 19.5502 35H36.7502C37.3204 35 37.8673 35.2265 38.2705 35.6297C38.6737 36.0329 38.9002 36.5798 38.9002 37.15C38.9002 37.7202 38.6737 38.2671 38.2705 38.6703C37.8673 39.0735 37.3204 39.3 36.7502 39.3H19.5502C18.98 39.3 18.4331 39.0735 18.0299 38.6703C17.6267 38.2671 17.4002 37.7202 17.4002 37.15ZM19.5502 43.6C18.98 43.6 18.4331 43.8265 18.0299 44.2297C17.6267 44.6329 17.4002 45.1798 17.4002 45.75C17.4002 46.3202 17.6267 46.8671 18.0299 47.2703C18.4331 47.6735 18.98 47.9 19.5502 47.9H36.7502C37.3204 47.9 37.8673 47.6735 38.2705 47.2703C38.6737 46.8671 38.9002 46.3202 38.9002 45.75C38.9002 45.1798 38.6737 44.6329 38.2705 44.2297C37.8673 43.8265 37.3204 43.6 36.7502 43.6H19.5502ZM8.8002 0.599976C6.51933 0.599976 4.33189 1.50604 2.71908 3.11886C1.10626 4.73167 0.200195 6.91911 0.200195 9.19998V52.2C0.200195 54.4808 1.10626 56.6683 2.71908 58.2811C4.33189 59.8939 6.51933 60.8 8.8002 60.8H38.9002C41.1811 60.8 43.3685 59.8939 44.9813 58.2811C46.5941 56.6683 47.5002 54.4808 47.5002 52.2V23.8802C47.4987 22.1701 46.8182 20.5306 45.6082 19.3222L28.778 2.48768C27.5688 1.2793 25.9295 0.600341 24.22 0.599976H8.8002ZM4.5002 9.19998C4.5002 8.05955 4.95323 6.96582 5.75964 6.15942C6.56604 5.35301 7.65976 4.89998 8.8002 4.89998H21.7002V19.95C21.7002 21.6606 22.3797 23.3012 23.5894 24.5108C24.799 25.7204 26.4396 26.4 28.1502 26.4H43.2002V52.2C43.2002 53.3404 42.7472 54.4341 41.9408 55.2405C41.1343 56.0469 40.0406 56.5 38.9002 56.5H8.8002C7.65976 56.5 6.56604 56.0469 5.75964 55.2405C4.95323 54.4341 4.5002 53.3404 4.5002 52.2V9.19998ZM26.0002 19.95V5.79008L42.3101 22.1H28.1502C27.58 22.1 27.0331 21.8735 26.6299 21.4703C26.2267 21.0671 26.0002 20.5202 26.0002 19.95ZM51.8002 26.4C52.9406 26.4 54.0344 26.853 54.8408 27.6594C55.6472 28.4658 56.1002 29.5595 56.1002 30.7V52.458C56.1002 54.6828 55.662 56.8859 54.8106 58.9414C53.9591 60.9969 52.7112 62.8646 51.138 64.4378C49.5648 66.011 47.6971 67.2589 45.6416 68.1103C43.5861 68.9618 41.3831 69.4 39.1582 69.4H13.1002C11.9598 69.4 10.866 68.9469 10.0596 68.1405C9.25323 67.3341 8.8002 66.2404 8.8002 65.1H38.9002C42.3215 65.1 45.6027 63.7409 48.0219 61.3217C50.4411 58.9024 51.8002 55.6213 51.8002 52.2V26.4Z" fill="#DD2727"/>
</svg>
