<svg width="75" height="75" viewBox="0 0 75 75" fill="none" xmlns="http://www.w3.org/2000/svg">
<path d="M73.0343 24.5794C74.0423 24.5794 74.5464 24.0265 74.5464 22.9206C74.5464 21.8148 74.0423 21.2619 73.0343 21.2619H66.5322V18.0953C66.5322 15.381 65.5998 13.0939 63.7349 11.2341C61.8699 9.37435 59.5766 8.44446 56.8548 8.44446H53.6794V1.96033C53.6794 0.955038 53.125 0.452393 52.0161 0.452393C50.9072 0.452393 50.3528 0.955038 50.3528 1.96033V8.44446H44.002V1.96033C44.002 0.955038 43.4476 0.452393 42.3387 0.452393C41.2298 0.452393 40.6754 0.955038 40.6754 1.96033V8.44446H34.3246V1.96033C34.3246 0.955038 33.7701 0.452393 32.6613 0.452393C31.5524 0.452393 30.998 0.955038 30.998 1.96033V8.44446H24.6472V1.96033C24.6472 0.955038 24.0927 0.452393 22.9839 0.452393C21.875 0.452393 21.3205 0.955038 21.3205 1.96033V8.44446H18.1451C15.4234 8.44446 13.13 9.37435 11.2651 11.2341C9.40019 13.0939 8.46773 15.381 8.46773 18.0953V21.2619H1.96571C0.957646 21.2619 0.453613 21.8148 0.453613 22.9206C0.453613 24.0265 0.957646 24.5794 1.96571 24.5794H8.46773V30.9127H1.96571C0.957646 30.9127 0.453613 31.4656 0.453613 32.5714C0.453613 33.6773 0.957646 34.2302 1.96571 34.2302H8.46773V40.5635H1.96571C0.957646 40.5635 0.453613 41.1164 0.453613 42.2222C0.453613 43.3281 0.957646 43.881 1.96571 43.881H8.46773V50.2143H1.96571C0.957646 50.2143 0.453613 50.7672 0.453613 51.873C0.453613 52.9789 0.957646 53.5318 1.96571 53.5318H8.46773V56.6984C8.46773 59.4127 9.40019 61.6997 11.2651 63.5595C13.13 65.4193 15.4234 66.3492 18.1451 66.3492H21.3205V72.8334C21.3205 73.8386 21.875 74.3413 22.9839 74.3413C24.0927 74.3413 24.6472 73.8386 24.6472 72.8334V66.3492H30.998V72.8334C30.998 73.8386 31.5524 74.3413 32.6613 74.3413C33.7701 74.3413 34.3246 73.8386 34.3246 72.8334V66.3492H40.6754V72.8334C40.6754 73.8386 41.2298 74.3413 42.3387 74.3413C43.4476 74.3413 44.002 73.8386 44.002 72.8334V66.3492H50.3528V72.8334C50.3528 73.8386 50.9072 74.3413 52.0161 74.3413C53.125 74.3413 53.6794 73.8386 53.6794 72.8334V66.3492H56.8548C59.5766 66.3492 61.8699 65.4193 63.7349 63.5595C65.5998 61.6997 66.5322 59.4127 66.5322 56.6984V53.5318H73.0343C74.0423 53.5318 74.5464 52.9789 74.5464 51.873C74.5464 50.7672 74.0423 50.2143 73.0343 50.2143H66.5322V43.881H73.0343C74.0423 43.881 74.5464 43.3281 74.5464 42.2222C74.5464 41.1164 74.0423 40.5635 73.0343 40.5635H66.5322V34.2302H73.0343C74.0423 34.2302 74.5464 33.6773 74.5464 32.5714C74.5464 31.4656 74.0423 30.9127 73.0343 30.9127H66.5322V24.5794H73.0343ZM60.0302 56.6984C60.0302 58.8095 58.9718 59.8651 56.8548 59.8651H18.1451C16.0282 59.8651 14.9697 58.8095 14.9697 56.6984V18.0953C14.9697 15.9841 16.0282 14.9286 18.1451 14.9286H56.8548C58.9718 14.9286 60.0302 15.9841 60.0302 18.0953V56.6984ZM50.3528 21.2619H24.6472C22.4294 21.2619 21.3205 22.3677 21.3205 24.5794V50.2143C21.3205 52.4259 22.4294 53.5318 24.6472 53.5318H50.3528C52.5705 53.5318 53.6794 52.4259 53.6794 50.2143V24.5794C53.6794 22.3677 52.5705 21.2619 50.3528 21.2619ZM47.1774 47.0476H27.8226V27.746H47.1774V47.0476Z" fill="#DD2727"/>
</svg>
