<svg width="56" height="72" viewBox="0 0 56 72" fill="none" xmlns="http://www.w3.org/2000/svg">
<path d="M54.8825 38.405L52.2175 36.3575V35.6425L54.8175 33.595C55.3375 33.205 55.4675 32.49 55.1425 31.9375L52.38 27.1275C52.2662 26.927 52.1006 26.7608 51.9004 26.6465C51.7003 26.5321 51.473 26.4737 51.2425 26.4775C51.08 26.4775 50.9175 26.51 50.755 26.575L47.6675 27.81C47.4075 27.6475 47.31 27.5825 47.05 27.4525L46.5625 24.17C46.5247 23.8504 46.3719 23.5555 46.1327 23.3403C45.8936 23.125 45.5843 23.0041 45.2625 23H39.705C39.055 23 38.5025 23.4875 38.405 24.105L37.95 27.3875C37.8525 27.4525 37.7225 27.485 37.625 27.55L37.3325 27.745L34.245 26.51C33.9532 26.3897 33.6276 26.3794 33.3287 26.481C33.0298 26.5826 32.778 26.7892 32.62 27.0625L29.8575 31.8725C29.5325 32.425 29.6625 33.14 30.1825 33.53L32.7825 35.5775V36.325L30.1825 38.3725C29.9341 38.5605 29.7636 38.8335 29.7037 39.1392C29.6437 39.445 29.6985 39.7621 29.8575 40.03L32.62 44.84C32.8475 45.2625 33.3025 45.49 33.7575 45.49C33.92 45.49 34.0825 45.4575 34.245 45.3925L37.3325 44.19C37.5925 44.3525 37.7225 44.4175 37.9825 44.5475L38.47 47.83C38.5675 48.48 39.12 48.935 39.77 48.935H45.3275C45.9775 48.935 46.53 48.4475 46.6275 47.83L47.115 44.5475C47.2125 44.4825 47.3425 44.45 47.44 44.385L47.7325 44.19L50.82 45.425C51.1118 45.5453 51.4374 45.5556 51.7363 45.454C52.0352 45.3524 52.287 45.1458 52.445 44.8725L55.2075 40.0625C55.3665 39.7946 55.4213 39.4775 55.3613 39.1717C55.3014 38.866 55.1309 38.593 54.8825 38.405ZM42.5 40.875C39.8025 40.875 37.625 38.6975 37.625 36C37.625 33.3025 39.8025 31.125 42.5 31.125C45.1975 31.125 47.375 33.3025 47.375 36C47.375 38.6975 45.1975 40.875 42.5 40.875ZM39.25 52.25H45.75V65.25C45.75 68.825 42.825 71.75 39.25 71.75H6.75C3.175 71.75 0.25 68.825 0.25 65.25V6.75C0.25 3.175 3.175 0.25 6.75 0.25H39.25C42.825 0.25 45.75 3.175 45.75 6.75V19.75H39.25V16.5H6.75V55.5H39.25V52.25Z" fill="#DD2727"/>
</svg>
