<svg width="63" height="66" viewBox="0 0 63 66" fill="none" xmlns="http://www.w3.org/2000/svg">
<path d="M55.7208 0.5H23.2825C19.6718 0.5 16.75 3.42175 16.75 7.0325V25.3528L1.46854 40.4392C1.01066 40.8921 0.69764 41.4708 0.569202 42.1018C0.440763 42.7329 0.502696 43.3878 0.747141 43.9836C0.991586 44.5794 1.40752 45.0892 1.94216 45.4482C2.47681 45.8072 3.10605 45.9992 3.75004 46V62.25C3.75004 63.112 4.09245 63.9386 4.70194 64.5481C5.31143 65.1576 6.13808 65.5 7.00004 65.5H59C59.862 65.5 60.6886 65.1576 61.2981 64.5481C61.9076 63.9386 62.25 63.112 62.25 62.25V7.02925C62.25 3.42175 59.3315 0.5 55.7208 0.5ZM29.4965 43.1107V59H10.25V40.904L19.9578 31.3197L29.4965 41.0795V43.1107ZM36.25 23.25H29.75V16.75H36.25V23.25ZM49.25 49.25H42.75V42.75H49.25V49.25ZM49.25 36.25H42.75V29.75H49.25V36.25ZM49.25 23.25H42.75V16.75H49.25V23.25Z" fill="#DD2727"/>
</svg>
