<svg width="77" height="71" viewBox="0 0 77 71" fill="none" xmlns="http://www.w3.org/2000/svg">
<path d="M69.6252 49.3333V7.83329H7.37516V49.3333H69.6252ZM69.6252 0.916626C71.4596 0.916626 73.2189 1.64534 74.516 2.94247C75.8131 4.2396 76.5418 5.99888 76.5418 7.83329V49.3333C76.5418 51.1677 75.8131 52.927 74.516 54.2241C73.2189 55.5212 71.4596 56.25 69.6252 56.25H45.4168V63.1666H52.3335V70.0833H24.6668V63.1666H31.5835V56.25H7.37516C5.54075 56.25 3.78147 55.5212 2.48434 54.2241C1.18721 52.927 0.458496 51.1677 0.458496 49.3333V7.83329C0.458496 3.99454 3.53641 0.916626 7.37516 0.916626H69.6252ZM14.2918 14.75H45.4168V32.0416H14.2918V14.75ZM48.8752 14.75H62.7085V21.6666H48.8752V14.75ZM62.7085 25.125V42.4166H48.8752V25.125H62.7085ZM14.2918 35.5H28.1252V42.4166H14.2918V35.5ZM31.5835 35.5H45.4168V42.4166H31.5835V35.5Z" fill="#DD2727"/>
</svg>
