<svg width="61" height="61" viewBox="0 0 61 61" fill="none" xmlns="http://www.w3.org/2000/svg">
<path d="M60.1694 4.52784V13.5858C60.1694 13.9289 60.0331 14.2581 59.7904 14.5007C59.5478 14.7434 59.2186 14.8797 58.8754 14.8797C58.5323 14.8797 58.2031 14.7434 57.9605 14.5007C57.7178 14.2581 57.5815 13.9289 57.5815 13.5858V4.52784C57.5815 4.18465 57.4451 3.85552 57.2025 3.61285C56.9598 3.37018 56.6307 3.23385 56.2875 3.23385H47.2296C46.8864 3.23385 46.5572 3.09752 46.3146 2.85485C46.0719 2.61218 45.9356 2.28305 45.9356 1.93986C45.9356 1.59667 46.0719 1.26754 46.3146 1.02487C46.5572 0.782205 46.8864 0.645874 47.2296 0.645874H56.2875C57.317 0.645874 58.3044 1.05486 59.0324 1.78287C59.7604 2.51088 60.1694 3.49828 60.1694 4.52784ZM58.8754 45.9354C58.5323 45.9354 58.2031 46.0718 57.9605 46.3144C57.7178 46.5571 57.5815 46.8862 57.5815 47.2294V56.2873C57.5815 56.6305 57.4451 56.9597 57.2025 57.2023C56.9598 57.445 56.6307 57.5813 56.2875 57.5813H47.2296C46.8864 57.5813 46.5572 57.7177 46.3146 57.9603C46.0719 58.203 45.9356 58.5321 45.9356 58.8753C45.9356 59.2185 46.0719 59.5476 46.3146 59.7903C46.5572 60.033 46.8864 60.1693 47.2296 60.1693H56.2875C57.317 60.1693 58.3044 59.7603 59.0324 59.0323C59.7604 58.3043 60.1694 57.3169 60.1694 56.2873V47.2294C60.1694 46.8862 60.0331 46.5571 59.7904 46.3144C59.5478 46.0718 59.2186 45.9354 58.8754 45.9354ZM13.5859 57.5813H4.52796C4.18477 57.5813 3.85564 57.445 3.61297 57.2023C3.3703 56.9597 3.23397 56.6305 3.23397 56.2873V47.2294C3.23397 46.8862 3.09764 46.5571 2.85497 46.3144C2.6123 46.0718 2.28317 45.9354 1.93998 45.9354C1.5968 45.9354 1.26767 46.0718 1.025 46.3144C0.782327 46.5571 0.645996 46.8862 0.645996 47.2294V56.2873C0.645996 57.3169 1.05499 58.3043 1.783 59.0323C2.51101 59.7603 3.4984 60.1693 4.52796 60.1693H13.5859C13.9291 60.1693 14.2582 60.033 14.5009 59.7903C14.7435 59.5476 14.8799 59.2185 14.8799 58.8753C14.8799 58.5321 14.7435 58.203 14.5009 57.9603C14.2582 57.7177 13.9291 57.5813 13.5859 57.5813ZM1.93998 14.8797C2.28317 14.8797 2.6123 14.7434 2.85497 14.5007C3.09764 14.2581 3.23397 13.9289 3.23397 13.5858V4.52784C3.23397 4.18465 3.3703 3.85552 3.61297 3.61285C3.85564 3.37018 4.18477 3.23385 4.52796 3.23385H13.5859C13.9291 3.23385 14.2582 3.09752 14.5009 2.85485C14.7435 2.61218 14.8799 2.28305 14.8799 1.93986C14.8799 1.59667 14.7435 1.26754 14.5009 1.02487C14.2582 0.782205 13.9291 0.645874 13.5859 0.645874H4.52796C3.4984 0.645874 2.51101 1.05486 1.783 1.78287C1.05499 2.51088 0.645996 3.49828 0.645996 4.52784V13.5858C0.645996 13.9289 0.782327 14.2581 1.025 14.5007C1.26767 14.7434 1.5968 14.8797 1.93998 14.8797ZM46.4208 46.5501C44.8884 43.6295 42.5864 41.1836 39.7639 39.4771C36.9414 37.7706 33.706 36.8686 30.4077 36.8686C27.1095 36.8686 23.874 37.7706 21.0516 39.4771C18.2291 41.1836 15.927 43.6295 14.3946 46.5501C14.2316 46.8547 13.9543 47.082 13.6236 47.1821C13.293 47.2822 12.9361 47.2469 12.6316 47.0839C12.327 46.9208 12.0996 46.6435 11.9995 46.3129C11.8994 45.9822 11.9348 45.6254 12.0978 45.3208C13.3762 42.9104 15.1169 40.7756 17.2206 39.0382C19.3243 37.3009 21.7498 35.995 24.3583 35.1953C22.1869 33.8754 20.5068 31.8814 19.5743 29.5176C18.6418 27.1537 18.508 24.5497 19.1934 22.1028C19.8788 19.6558 21.3457 17.5002 23.3705 15.9647C25.3952 14.4291 27.8666 13.598 30.4077 13.598C32.9488 13.598 35.4202 14.4291 37.445 15.9647C39.4697 17.5002 40.9366 19.6558 41.622 22.1028C42.3074 24.5497 42.1736 27.1537 41.2411 29.5176C40.3086 31.8814 38.6285 33.8754 36.4571 35.1953C39.0657 35.995 41.4911 37.3009 43.5948 39.0382C45.6985 40.7756 47.4393 42.9104 48.7176 45.3208C48.7964 45.4716 48.8446 45.6364 48.8596 45.8059C48.8745 45.9753 48.8559 46.146 48.8049 46.3083C48.7538 46.4705 48.6712 46.6211 48.5619 46.7514C48.4526 46.8817 48.3186 46.9892 48.1677 47.0677C47.9967 47.1844 47.792 47.2412 47.5854 47.2294C47.349 47.2273 47.1171 47.1636 46.9129 47.0444C46.7087 46.9253 46.539 46.7549 46.4208 46.5501ZM30.4077 34.2896C32.1992 34.2896 33.9505 33.7583 35.44 32.763C36.9296 31.7677 38.0906 30.3531 38.7761 28.698C39.4617 27.0428 39.6411 25.2216 39.2916 23.4645C38.9421 21.7075 38.0794 20.0935 36.8126 18.8267C35.5459 17.56 33.9319 16.6973 32.1748 16.3478C30.4178 15.9983 28.5965 16.1776 26.9414 16.8632C25.2863 17.5488 23.8716 18.7098 22.8763 20.1993C21.881 21.6889 21.3498 23.4402 21.3498 25.2316C21.3583 27.6313 22.3154 29.9303 24.0122 31.6271C25.7091 33.324 28.008 34.281 30.4077 34.2896Z" fill="#DD2727"/>
</svg>
