<svg width="67" height="67" viewBox="0 0 67 67" fill="none" xmlns="http://www.w3.org/2000/svg">
<path fill-rule="evenodd" clip-rule="evenodd" d="M24.2292 41.8252C13.1283 43.7628 0.125 48.7097 0.125 55.75V66.875H66.875V55.75C66.875 48.7097 53.8717 43.7628 42.7708 41.8252V50.1875H24.2292V41.8252ZM13.1042 66.875V50.1875H16.8125V66.875H13.1042ZM52.0417 50.1875V66.875H55.75V50.1875H52.0417ZM35.3542 0.232542V8.43167C35.3542 8.92342 35.1588 9.39504 34.8111 9.74276C34.4634 10.0905 33.9918 10.2858 33.5 10.2858C33.0082 10.2858 32.5366 10.0905 32.1889 9.74276C31.8412 9.39504 31.6458 8.92342 31.6458 8.43167V0.125C29.7316 0.226177 27.8494 0.659069 26.0833 1.40438V12.14C26.0833 12.6318 25.888 13.1034 25.5403 13.4511C25.1925 13.7988 24.7209 13.9942 24.2292 13.9942C23.7374 13.9942 23.2658 13.7988 22.9181 13.4511C22.5703 13.1034 22.375 12.6318 22.375 12.14V3.71281C19.8348 5.89702 18.37 8.73019 17.9046 11.2129C17.8887 11.2993 17.8738 11.3858 17.8601 11.4725L17.823 11.5096C17.658 12.6759 17.7489 13.6363 17.9862 14.2964C18.1382 14.7557 18.1047 15.2562 17.8927 15.6912C17.6808 16.1261 17.3073 16.4609 16.8519 16.6243C16.3965 16.7876 15.8953 16.7665 15.4552 16.5654C15.0152 16.3643 14.6712 15.9992 14.4966 15.548C14.4652 15.462 14.4355 15.3755 14.4076 15.2884C3.6405 29.3467 63.4188 29.3392 52.5738 15.2643C52.5458 15.355 52.5161 15.4453 52.4848 15.535C52.3139 15.9878 51.9726 16.3559 51.5339 16.5605C51.0953 16.7651 50.594 16.7901 50.1372 16.63C49.6803 16.47 49.3042 16.1377 49.0891 15.7041C48.874 15.2705 48.837 14.7699 48.986 14.3094C49.253 13.5417 49.3309 12.585 49.1862 11.5281C49.1752 11.52 49.1641 11.5119 49.1529 11.504C48.7524 8.99719 47.2282 6.22521 44.625 4.041V12.14C44.625 12.6318 44.4297 13.1034 44.0819 13.4511C43.7342 13.7988 43.2626 13.9942 42.7708 13.9942C42.2791 13.9942 41.8075 13.7988 41.4597 13.4511C41.112 13.1034 40.9167 12.6318 40.9167 12.14V1.72329C40.1927 1.39808 39.4474 1.12241 38.6861 0.898187C37.5966 0.580681 36.4819 0.357361 35.3542 0.230688V0.232542Z" fill="#DD2727"/>
</svg>
